<mxfile host="Electron" agent="Mozilla/5.0 (Windows NT 10.0; Win64; x64) AppleWebKit/537.36 (KHTML, like Gecko) draw.io/24.7.8 Chrome/128.0.6613.36 Electron/32.0.1 Safari/537.36" version="24.7.8">
  <diagram name="Page-1" id="CMhevKf3GD1KP75P-REN">
    <mxGraphModel dx="1156" dy="-207" grid="1" gridSize="10" guides="1" tooltips="1" connect="1" arrows="1" fold="1" page="1" pageScale="1" pageWidth="850" pageHeight="1400" math="0" shadow="0">
      <root>
        <mxCell id="0" />
        <mxCell id="1" parent="0" />
        <mxCell id="kx3W0ZN1TxM2vZaIyWMh-42" value="&lt;b style=&quot;&quot;&gt;&lt;span style=&quot;line-height: 107%;&quot;&gt;Registered&lt;br&gt;User&lt;/span&gt;&lt;/b&gt;" style="shape=umlActor;verticalLabelPosition=bottom;verticalAlign=top;html=1;outlineConnect=0;" vertex="1" parent="1">
          <mxGeometry x="100" y="1920" width="30" height="60" as="geometry" />
        </mxCell>
        <mxCell id="kx3W0ZN1TxM2vZaIyWMh-43" value="" style="swimlane;startSize=0;fontStyle=1;fontSize=13;" vertex="1" parent="1">
          <mxGeometry x="340" y="1590" width="870" height="1060" as="geometry" />
        </mxCell>
        <mxCell id="kx3W0ZN1TxM2vZaIyWMh-44" value="User Registration &amp;amp; Authentication" style="ellipse;whiteSpace=wrap;html=1;fontStyle=1;fontSize=13;" vertex="1" parent="kx3W0ZN1TxM2vZaIyWMh-43">
          <mxGeometry x="50" y="10" width="190" height="50" as="geometry" />
        </mxCell>
        <mxCell id="kx3W0ZN1TxM2vZaIyWMh-45" value="Delete Chat" style="ellipse;whiteSpace=wrap;html=1;fontStyle=1;fontSize=13;" vertex="1" parent="kx3W0ZN1TxM2vZaIyWMh-43">
          <mxGeometry x="60" y="800" width="190" height="50" as="geometry" />
        </mxCell>
        <mxCell id="kx3W0ZN1TxM2vZaIyWMh-46" value="Leave Group" style="ellipse;whiteSpace=wrap;html=1;fontStyle=1;fontSize=13;" vertex="1" parent="kx3W0ZN1TxM2vZaIyWMh-43">
          <mxGeometry x="50" y="500" width="190" height="50" as="geometry" />
        </mxCell>
        <mxCell id="kx3W0ZN1TxM2vZaIyWMh-47" value="Manage Contacts" style="ellipse;whiteSpace=wrap;html=1;fontStyle=1;fontSize=13;" vertex="1" parent="kx3W0ZN1TxM2vZaIyWMh-43">
          <mxGeometry x="50" y="190" width="190" height="50" as="geometry" />
        </mxCell>
        <mxCell id="kx3W0ZN1TxM2vZaIyWMh-48" value="Manage Profile" style="ellipse;whiteSpace=wrap;html=1;fontStyle=1;fontSize=13;" vertex="1" parent="kx3W0ZN1TxM2vZaIyWMh-43">
          <mxGeometry x="50" y="100" width="190" height="50" as="geometry" />
        </mxCell>
        <mxCell id="kx3W0ZN1TxM2vZaIyWMh-49" value="Manage Group" style="ellipse;whiteSpace=wrap;html=1;fontStyle=1;fontSize=13;" vertex="1" parent="kx3W0ZN1TxM2vZaIyWMh-43">
          <mxGeometry x="80" y="940" width="190" height="50" as="geometry" />
        </mxCell>
        <mxCell id="kx3W0ZN1TxM2vZaIyWMh-50" value="Create Group Chat" style="ellipse;whiteSpace=wrap;html=1;fontStyle=1;fontSize=13;" vertex="1" parent="kx3W0ZN1TxM2vZaIyWMh-43">
          <mxGeometry x="40" y="350" width="190" height="50" as="geometry" />
        </mxCell>
        <mxCell id="kx3W0ZN1TxM2vZaIyWMh-51" value="Start Private Chat" style="ellipse;whiteSpace=wrap;html=1;fontStyle=1;fontSize=13;" vertex="1" parent="kx3W0ZN1TxM2vZaIyWMh-43">
          <mxGeometry x="50" y="270" width="190" height="50" as="geometry" />
        </mxCell>
        <mxCell id="kx3W0ZN1TxM2vZaIyWMh-52" value="Subscribe to Channel" style="ellipse;whiteSpace=wrap;html=1;fontStyle=1;fontSize=13;" vertex="1" parent="kx3W0ZN1TxM2vZaIyWMh-43">
          <mxGeometry x="60" y="730" width="190" height="50" as="geometry" />
        </mxCell>
        <mxCell id="kx3W0ZN1TxM2vZaIyWMh-53" value="Manage Channel " style="ellipse;whiteSpace=wrap;html=1;fontStyle=1;fontSize=13;" vertex="1" parent="kx3W0ZN1TxM2vZaIyWMh-43">
          <mxGeometry x="60" y="660" width="190" height="50" as="geometry" />
        </mxCell>
        <mxCell id="kx3W0ZN1TxM2vZaIyWMh-54" value="Create Channel" style="ellipse;whiteSpace=wrap;html=1;fontStyle=1;fontSize=13;" vertex="1" parent="kx3W0ZN1TxM2vZaIyWMh-43">
          <mxGeometry x="50" y="580" width="190" height="50" as="geometry" />
        </mxCell>
        <mxCell id="kx3W0ZN1TxM2vZaIyWMh-56" value="Send Message" style="ellipse;whiteSpace=wrap;html=1;fontStyle=1;fontSize=13;" vertex="1" parent="kx3W0ZN1TxM2vZaIyWMh-43">
          <mxGeometry x="60" y="420" width="190" height="50" as="geometry" />
        </mxCell>
        <mxCell id="kx3W0ZN1TxM2vZaIyWMh-57" value="Receive Message" style="ellipse;whiteSpace=wrap;html=1;fontStyle=1;fontSize=13;" vertex="1" parent="kx3W0ZN1TxM2vZaIyWMh-43">
          <mxGeometry x="300" y="500" width="190" height="50" as="geometry" />
        </mxCell>
        <mxCell id="kx3W0ZN1TxM2vZaIyWMh-58" value="Reply to Message" style="ellipse;whiteSpace=wrap;html=1;fontStyle=1;fontSize=13;" vertex="1" parent="kx3W0ZN1TxM2vZaIyWMh-43">
          <mxGeometry x="300" y="10" width="190" height="50" as="geometry" />
        </mxCell>
        <mxCell id="kx3W0ZN1TxM2vZaIyWMh-59" value="Forward Message" style="ellipse;whiteSpace=wrap;html=1;fontStyle=1;fontSize=13;" vertex="1" parent="kx3W0ZN1TxM2vZaIyWMh-43">
          <mxGeometry x="300" y="100" width="190" height="50" as="geometry" />
        </mxCell>
        <mxCell id="kx3W0ZN1TxM2vZaIyWMh-60" value="Edit Own&amp;nbsp;Message" style="ellipse;whiteSpace=wrap;html=1;fontStyle=1;fontSize=13;" vertex="1" parent="kx3W0ZN1TxM2vZaIyWMh-43">
          <mxGeometry x="300" y="180" width="190" height="50" as="geometry" />
        </mxCell>
        <mxCell id="kx3W0ZN1TxM2vZaIyWMh-61" value="Delete Own Message" style="ellipse;whiteSpace=wrap;html=1;fontStyle=1;fontSize=13;" vertex="1" parent="kx3W0ZN1TxM2vZaIyWMh-43">
          <mxGeometry x="300" y="270" width="190" height="50" as="geometry" />
        </mxCell>
        <mxCell id="kx3W0ZN1TxM2vZaIyWMh-62" value="Delete Any Message&amp;nbsp;" style="ellipse;whiteSpace=wrap;html=1;fontStyle=1;fontSize=13;" vertex="1" parent="kx3W0ZN1TxM2vZaIyWMh-43">
          <mxGeometry x="300" y="350" width="190" height="50" as="geometry" />
        </mxCell>
        <mxCell id="kx3W0ZN1TxM2vZaIyWMh-63" value="Synchronize Message History" style="ellipse;whiteSpace=wrap;html=1;fontStyle=1;fontSize=13;" vertex="1" parent="kx3W0ZN1TxM2vZaIyWMh-43">
          <mxGeometry x="580" y="380" width="190" height="50" as="geometry" />
        </mxCell>
        <mxCell id="kx3W0ZN1TxM2vZaIyWMh-64" value="Track Unread Messages" style="ellipse;whiteSpace=wrap;html=1;fontStyle=1;fontSize=13;" vertex="1" parent="kx3W0ZN1TxM2vZaIyWMh-43">
          <mxGeometry x="570" y="550" width="190" height="50" as="geometry" />
        </mxCell>
        <mxCell id="kx3W0ZN1TxM2vZaIyWMh-65" value="View Channel Message Count" style="ellipse;whiteSpace=wrap;html=1;fontStyle=1;fontSize=13;" vertex="1" parent="kx3W0ZN1TxM2vZaIyWMh-43">
          <mxGeometry x="300" y="580" width="190" height="50" as="geometry" />
        </mxCell>
        <mxCell id="kx3W0ZN1TxM2vZaIyWMh-66" value="Upload Media" style="ellipse;whiteSpace=wrap;html=1;fontStyle=1;fontSize=13;" vertex="1" parent="kx3W0ZN1TxM2vZaIyWMh-43">
          <mxGeometry x="300" y="650" width="190" height="50" as="geometry" />
        </mxCell>
        <mxCell id="kx3W0ZN1TxM2vZaIyWMh-67" value="Store Media&amp;nbsp;" style="ellipse;whiteSpace=wrap;html=1;fontStyle=1;fontSize=13;" vertex="1" parent="kx3W0ZN1TxM2vZaIyWMh-43">
          <mxGeometry x="590" y="690" width="190" height="50" as="geometry" />
        </mxCell>
        <mxCell id="kx3W0ZN1TxM2vZaIyWMh-68" value="Retrieve Media" style="ellipse;whiteSpace=wrap;html=1;fontStyle=1;fontSize=13;" vertex="1" parent="kx3W0ZN1TxM2vZaIyWMh-43">
          <mxGeometry x="300" y="740" width="190" height="50" as="geometry" />
        </mxCell>
        <mxCell id="kx3W0ZN1TxM2vZaIyWMh-69" value="Generate Thumbnails " style="ellipse;whiteSpace=wrap;html=1;fontStyle=1;fontSize=13;" vertex="1" parent="kx3W0ZN1TxM2vZaIyWMh-43">
          <mxGeometry x="300" y="870" width="190" height="50" as="geometry" />
        </mxCell>
        <mxCell id="kx3W0ZN1TxM2vZaIyWMh-70" value="Send Push Notification " style="ellipse;whiteSpace=wrap;html=1;fontStyle=1;fontSize=13;" vertex="1" parent="kx3W0ZN1TxM2vZaIyWMh-43">
          <mxGeometry x="590" y="260" width="190" height="50" as="geometry" />
        </mxCell>
        <mxCell id="kx3W0ZN1TxM2vZaIyWMh-71" value="Enforce Blocked User Restrictions" style="ellipse;whiteSpace=wrap;html=1;fontStyle=1;fontSize=13;" vertex="1" parent="kx3W0ZN1TxM2vZaIyWMh-43">
          <mxGeometry x="580" y="820" width="190" height="50" as="geometry" />
        </mxCell>
        <mxCell id="kx3W0ZN1TxM2vZaIyWMh-72" value="Authenticate User " style="ellipse;whiteSpace=wrap;html=1;fontStyle=1;fontSize=13;" vertex="1" parent="kx3W0ZN1TxM2vZaIyWMh-43">
          <mxGeometry x="580" y="90" width="190" height="50" as="geometry" />
        </mxCell>
        <mxCell id="kx3W0ZN1TxM2vZaIyWMh-73" value="Configure Privacy Settings" style="ellipse;whiteSpace=wrap;html=1;fontStyle=1;fontSize=13;" vertex="1" parent="kx3W0ZN1TxM2vZaIyWMh-43">
          <mxGeometry x="570" y="470" width="190" height="50" as="geometry" />
        </mxCell>
        <mxCell id="kx3W0ZN1TxM2vZaIyWMh-119" value="" style="endArrow=classic;html=1;rounded=0;dashed=1;exitX=0;exitY=0.5;exitDx=0;exitDy=0;entryX=1;entryY=0.5;entryDx=0;entryDy=0;" edge="1" parent="kx3W0ZN1TxM2vZaIyWMh-43" source="kx3W0ZN1TxM2vZaIyWMh-72" target="kx3W0ZN1TxM2vZaIyWMh-44">
          <mxGeometry width="50" height="50" relative="1" as="geometry">
            <mxPoint x="315" y="70" as="sourcePoint" />
            <mxPoint x="475" y="70" as="targetPoint" />
          </mxGeometry>
        </mxCell>
        <mxCell id="kx3W0ZN1TxM2vZaIyWMh-120" value="&amp;lt;&amp;lt;include&amp;gt;&amp;gt;" style="edgeLabel;html=1;align=center;verticalAlign=middle;resizable=0;points=[];" vertex="1" connectable="0" parent="kx3W0ZN1TxM2vZaIyWMh-119">
          <mxGeometry x="-0.219" y="-1" relative="1" as="geometry">
            <mxPoint as="offset" />
          </mxGeometry>
        </mxCell>
        <mxCell id="kx3W0ZN1TxM2vZaIyWMh-121" value="" style="endArrow=classic;html=1;rounded=0;dashed=1;exitX=0;exitY=0.5;exitDx=0;exitDy=0;entryX=1;entryY=0.5;entryDx=0;entryDy=0;" edge="1" parent="kx3W0ZN1TxM2vZaIyWMh-43" source="kx3W0ZN1TxM2vZaIyWMh-67" target="kx3W0ZN1TxM2vZaIyWMh-68">
          <mxGeometry width="50" height="50" relative="1" as="geometry">
            <mxPoint x="590" y="125" as="sourcePoint" />
            <mxPoint x="250" y="45" as="targetPoint" />
          </mxGeometry>
        </mxCell>
        <mxCell id="kx3W0ZN1TxM2vZaIyWMh-122" value="&amp;lt;&amp;lt;include&amp;gt;&amp;gt;" style="edgeLabel;html=1;align=center;verticalAlign=middle;resizable=0;points=[];" vertex="1" connectable="0" parent="kx3W0ZN1TxM2vZaIyWMh-121">
          <mxGeometry x="-0.219" y="-1" relative="1" as="geometry">
            <mxPoint as="offset" />
          </mxGeometry>
        </mxCell>
        <mxCell id="kx3W0ZN1TxM2vZaIyWMh-123" value="" style="endArrow=classic;html=1;rounded=0;dashed=1;exitX=0;exitY=0.5;exitDx=0;exitDy=0;entryX=1;entryY=0.5;entryDx=0;entryDy=0;" edge="1" parent="kx3W0ZN1TxM2vZaIyWMh-43" source="kx3W0ZN1TxM2vZaIyWMh-67" target="kx3W0ZN1TxM2vZaIyWMh-66">
          <mxGeometry width="50" height="50" relative="1" as="geometry">
            <mxPoint x="600" y="725" as="sourcePoint" />
            <mxPoint x="500" y="775" as="targetPoint" />
          </mxGeometry>
        </mxCell>
        <mxCell id="kx3W0ZN1TxM2vZaIyWMh-124" value="&amp;lt;&amp;lt;include&amp;gt;&amp;gt;" style="edgeLabel;html=1;align=center;verticalAlign=middle;resizable=0;points=[];" vertex="1" connectable="0" parent="kx3W0ZN1TxM2vZaIyWMh-123">
          <mxGeometry x="-0.219" y="-1" relative="1" as="geometry">
            <mxPoint as="offset" />
          </mxGeometry>
        </mxCell>
        <mxCell id="kx3W0ZN1TxM2vZaIyWMh-125" value="" style="endArrow=classic;html=1;rounded=0;dashed=1;exitX=0;exitY=0.5;exitDx=0;exitDy=0;entryX=1;entryY=0.5;entryDx=0;entryDy=0;" edge="1" parent="kx3W0ZN1TxM2vZaIyWMh-43" source="kx3W0ZN1TxM2vZaIyWMh-64" target="kx3W0ZN1TxM2vZaIyWMh-57">
          <mxGeometry width="50" height="50" relative="1" as="geometry">
            <mxPoint x="510" y="648.8200000000002" as="sourcePoint" />
            <mxPoint x="670" y="648.8200000000002" as="targetPoint" />
          </mxGeometry>
        </mxCell>
        <mxCell id="kx3W0ZN1TxM2vZaIyWMh-126" value="&amp;lt;&amp;lt;extend&amp;gt;&amp;gt;" style="edgeLabel;html=1;align=center;verticalAlign=middle;resizable=0;points=[];" vertex="1" connectable="0" parent="kx3W0ZN1TxM2vZaIyWMh-125">
          <mxGeometry x="-0.219" y="-1" relative="1" as="geometry">
            <mxPoint as="offset" />
          </mxGeometry>
        </mxCell>
        <mxCell id="kx3W0ZN1TxM2vZaIyWMh-129" value="" style="endArrow=classic;html=1;rounded=0;dashed=1;exitX=0;exitY=0.5;exitDx=0;exitDy=0;entryX=1;entryY=0.5;entryDx=0;entryDy=0;" edge="1" parent="kx3W0ZN1TxM2vZaIyWMh-43" source="kx3W0ZN1TxM2vZaIyWMh-64" target="kx3W0ZN1TxM2vZaIyWMh-62">
          <mxGeometry width="50" height="50" relative="1" as="geometry">
            <mxPoint x="580" y="585" as="sourcePoint" />
            <mxPoint x="500" y="535" as="targetPoint" />
          </mxGeometry>
        </mxCell>
        <mxCell id="kx3W0ZN1TxM2vZaIyWMh-130" value="&amp;lt;&amp;lt;extend&amp;gt;&amp;gt;" style="edgeLabel;html=1;align=center;verticalAlign=middle;resizable=0;points=[];" vertex="1" connectable="0" parent="kx3W0ZN1TxM2vZaIyWMh-129">
          <mxGeometry x="-0.219" y="-1" relative="1" as="geometry">
            <mxPoint as="offset" />
          </mxGeometry>
        </mxCell>
        <mxCell id="kx3W0ZN1TxM2vZaIyWMh-131" value="" style="endArrow=classic;html=1;rounded=0;dashed=1;exitX=0;exitY=0.5;exitDx=0;exitDy=0;entryX=1;entryY=0.5;entryDx=0;entryDy=0;" edge="1" parent="kx3W0ZN1TxM2vZaIyWMh-43" source="kx3W0ZN1TxM2vZaIyWMh-67" target="kx3W0ZN1TxM2vZaIyWMh-69">
          <mxGeometry width="50" height="50" relative="1" as="geometry">
            <mxPoint x="600" y="725" as="sourcePoint" />
            <mxPoint x="500" y="775" as="targetPoint" />
          </mxGeometry>
        </mxCell>
        <mxCell id="kx3W0ZN1TxM2vZaIyWMh-132" value="&amp;lt;&amp;lt;include&amp;gt;&amp;gt;" style="edgeLabel;html=1;align=center;verticalAlign=middle;resizable=0;points=[];" vertex="1" connectable="0" parent="kx3W0ZN1TxM2vZaIyWMh-131">
          <mxGeometry x="-0.219" y="-1" relative="1" as="geometry">
            <mxPoint as="offset" />
          </mxGeometry>
        </mxCell>
        <mxCell id="kx3W0ZN1TxM2vZaIyWMh-134" value="" style="endArrow=classic;html=1;rounded=0;dashed=1;exitX=0;exitY=0.5;exitDx=0;exitDy=0;entryX=1;entryY=0.5;entryDx=0;entryDy=0;" edge="1" parent="kx3W0ZN1TxM2vZaIyWMh-43" source="kx3W0ZN1TxM2vZaIyWMh-70" target="kx3W0ZN1TxM2vZaIyWMh-56">
          <mxGeometry width="50" height="50" relative="1" as="geometry">
            <mxPoint x="600" y="725" as="sourcePoint" />
            <mxPoint x="500" y="685" as="targetPoint" />
          </mxGeometry>
        </mxCell>
        <mxCell id="kx3W0ZN1TxM2vZaIyWMh-135" value="&amp;lt;&amp;lt;include&amp;gt;&amp;gt;" style="edgeLabel;html=1;align=center;verticalAlign=middle;resizable=0;points=[];" vertex="1" connectable="0" parent="kx3W0ZN1TxM2vZaIyWMh-134">
          <mxGeometry x="-0.219" y="-1" relative="1" as="geometry">
            <mxPoint as="offset" />
          </mxGeometry>
        </mxCell>
        <mxCell id="kx3W0ZN1TxM2vZaIyWMh-136" value="" style="endArrow=classic;html=1;rounded=0;dashed=1;exitX=0;exitY=0.5;exitDx=0;exitDy=0;entryX=1;entryY=0.5;entryDx=0;entryDy=0;" edge="1" parent="kx3W0ZN1TxM2vZaIyWMh-43" source="kx3W0ZN1TxM2vZaIyWMh-70" target="kx3W0ZN1TxM2vZaIyWMh-59">
          <mxGeometry width="50" height="50" relative="1" as="geometry">
            <mxPoint x="590" y="885" as="sourcePoint" />
            <mxPoint x="260" y="965" as="targetPoint" />
          </mxGeometry>
        </mxCell>
        <mxCell id="kx3W0ZN1TxM2vZaIyWMh-137" value="&amp;lt;&amp;lt;include&amp;gt;&amp;gt;" style="edgeLabel;html=1;align=center;verticalAlign=middle;resizable=0;points=[];" vertex="1" connectable="0" parent="kx3W0ZN1TxM2vZaIyWMh-136">
          <mxGeometry x="-0.219" y="-1" relative="1" as="geometry">
            <mxPoint as="offset" />
          </mxGeometry>
        </mxCell>
        <mxCell id="kx3W0ZN1TxM2vZaIyWMh-74" value="" style="endArrow=classic;html=1;rounded=0;" edge="1" parent="1">
          <mxGeometry width="50" height="50" relative="1" as="geometry">
            <mxPoint x="400" y="1440" as="sourcePoint" />
            <mxPoint x="560" y="1440" as="targetPoint" />
          </mxGeometry>
        </mxCell>
        <mxCell id="kx3W0ZN1TxM2vZaIyWMh-75" value="&lt;b&gt;&lt;span style=&quot;font-size:12.0pt;line-height:107%;&lt;br/&gt;font-family:&amp;quot;Times New Roman&amp;quot;,serif;mso-fareast-font-family:&amp;quot;Times New Roman&amp;quot;;&lt;br/&gt;mso-ansi-language:EN-US;mso-fareast-language:EN-US;mso-bidi-language:AR-SA&quot;&gt;System&amp;nbsp;&lt;/span&gt;&lt;/b&gt;" style="shape=umlActor;verticalLabelPosition=bottom;verticalAlign=top;html=1;outlineConnect=0;" vertex="1" parent="1">
          <mxGeometry x="1260" y="1890" width="30" height="60" as="geometry" />
        </mxCell>
        <mxCell id="kx3W0ZN1TxM2vZaIyWMh-84" style="edgeStyle=orthogonalEdgeStyle;rounded=0;orthogonalLoop=1;jettySize=auto;html=1;" edge="1" parent="1" source="kx3W0ZN1TxM2vZaIyWMh-76" target="kx3W0ZN1TxM2vZaIyWMh-42">
          <mxGeometry relative="1" as="geometry" />
        </mxCell>
        <mxCell id="kx3W0ZN1TxM2vZaIyWMh-76" value="&lt;b&gt;&lt;span style=&quot;font-size:12.0pt;line-height:107%;&lt;br/&gt;font-family:&amp;quot;Times New Roman&amp;quot;,serif;mso-fareast-font-family:&amp;quot;Times New Roman&amp;quot;;&lt;br/&gt;mso-ansi-language:EN-US;mso-fareast-language:EN-US;mso-bidi-language:AR-SA&quot;&gt;Admin&lt;/span&gt;&lt;/b&gt;" style="shape=umlActor;verticalLabelPosition=bottom;verticalAlign=top;html=1;outlineConnect=0;" vertex="1" parent="1">
          <mxGeometry x="180" y="2520" width="30" height="60" as="geometry" />
        </mxCell>
        <mxCell id="kx3W0ZN1TxM2vZaIyWMh-77" value="&lt;b&gt;&lt;span style=&quot;font-size:12.0pt;line-height:107%;&lt;br/&gt;font-family:&amp;quot;Times New Roman&amp;quot;,serif;mso-fareast-font-family:&amp;quot;Times New Roman&amp;quot;;&lt;br/&gt;mso-ansi-language:EN-US;mso-fareast-language:EN-US;mso-bidi-language:AR-SA&quot;&gt;Blocked&lt;br/&gt;User&lt;/span&gt;&lt;/b&gt;" style="shape=umlActor;verticalLabelPosition=bottom;verticalAlign=top;html=1;outlineConnect=0;" vertex="1" parent="1">
          <mxGeometry x="180" y="2160" width="30" height="60" as="geometry" />
        </mxCell>
        <mxCell id="kx3W0ZN1TxM2vZaIyWMh-80" value="" style="endArrow=classic;html=1;rounded=0;dashed=1;" edge="1" parent="1">
          <mxGeometry width="50" height="50" relative="1" as="geometry">
            <mxPoint x="400" y="1540" as="sourcePoint" />
            <mxPoint x="560" y="1540" as="targetPoint" />
          </mxGeometry>
        </mxCell>
        <mxCell id="kx3W0ZN1TxM2vZaIyWMh-81" value="&amp;lt;&amp;lt;include&amp;gt;&amp;gt;" style="edgeLabel;html=1;align=center;verticalAlign=middle;resizable=0;points=[];" vertex="1" connectable="0" parent="kx3W0ZN1TxM2vZaIyWMh-80">
          <mxGeometry x="-0.219" y="-1" relative="1" as="geometry">
            <mxPoint as="offset" />
          </mxGeometry>
        </mxCell>
        <mxCell id="kx3W0ZN1TxM2vZaIyWMh-82" value="" style="endArrow=classic;html=1;rounded=0;dashed=1;" edge="1" parent="1">
          <mxGeometry width="50" height="50" relative="1" as="geometry">
            <mxPoint x="400" y="1480" as="sourcePoint" />
            <mxPoint x="560" y="1480" as="targetPoint" />
          </mxGeometry>
        </mxCell>
        <mxCell id="kx3W0ZN1TxM2vZaIyWMh-83" value="&amp;lt;&amp;lt;extend&amp;gt;&amp;gt;" style="edgeLabel;html=1;align=center;verticalAlign=middle;resizable=0;points=[];" vertex="1" connectable="0" parent="kx3W0ZN1TxM2vZaIyWMh-82">
          <mxGeometry x="-0.219" y="-1" relative="1" as="geometry">
            <mxPoint as="offset" />
          </mxGeometry>
        </mxCell>
        <mxCell id="kx3W0ZN1TxM2vZaIyWMh-87" value="" style="endArrow=classic;html=1;rounded=0;exitX=0.5;exitY=0.5;exitDx=0;exitDy=0;exitPerimeter=0;entryX=0;entryY=0.5;entryDx=0;entryDy=0;" edge="1" parent="1" source="kx3W0ZN1TxM2vZaIyWMh-42" target="kx3W0ZN1TxM2vZaIyWMh-44">
          <mxGeometry width="50" height="50" relative="1" as="geometry">
            <mxPoint x="80" y="1810" as="sourcePoint" />
            <mxPoint x="240" y="1810" as="targetPoint" />
          </mxGeometry>
        </mxCell>
        <mxCell id="kx3W0ZN1TxM2vZaIyWMh-88" value="" style="endArrow=classic;html=1;rounded=0;exitX=0.5;exitY=0.5;exitDx=0;exitDy=0;exitPerimeter=0;entryX=0;entryY=0.5;entryDx=0;entryDy=0;" edge="1" parent="1" source="kx3W0ZN1TxM2vZaIyWMh-42" target="kx3W0ZN1TxM2vZaIyWMh-48">
          <mxGeometry width="50" height="50" relative="1" as="geometry">
            <mxPoint x="125" y="1960" as="sourcePoint" />
            <mxPoint x="400" y="1635" as="targetPoint" />
          </mxGeometry>
        </mxCell>
        <mxCell id="kx3W0ZN1TxM2vZaIyWMh-89" value="" style="endArrow=classic;html=1;rounded=0;exitX=0.5;exitY=0.5;exitDx=0;exitDy=0;exitPerimeter=0;entryX=0;entryY=0.5;entryDx=0;entryDy=0;" edge="1" parent="1" source="kx3W0ZN1TxM2vZaIyWMh-42" target="kx3W0ZN1TxM2vZaIyWMh-47">
          <mxGeometry width="50" height="50" relative="1" as="geometry">
            <mxPoint x="125" y="1960" as="sourcePoint" />
            <mxPoint x="400" y="1725" as="targetPoint" />
          </mxGeometry>
        </mxCell>
        <mxCell id="kx3W0ZN1TxM2vZaIyWMh-90" value="" style="endArrow=classic;html=1;rounded=0;exitX=0.5;exitY=0.5;exitDx=0;exitDy=0;exitPerimeter=0;entryX=0;entryY=0.5;entryDx=0;entryDy=0;" edge="1" parent="1" source="kx3W0ZN1TxM2vZaIyWMh-42" target="kx3W0ZN1TxM2vZaIyWMh-51">
          <mxGeometry width="50" height="50" relative="1" as="geometry">
            <mxPoint x="125" y="1960" as="sourcePoint" />
            <mxPoint x="400" y="1815" as="targetPoint" />
          </mxGeometry>
        </mxCell>
        <mxCell id="kx3W0ZN1TxM2vZaIyWMh-92" value="" style="endArrow=classic;html=1;rounded=0;exitX=0.5;exitY=0.5;exitDx=0;exitDy=0;exitPerimeter=0;entryX=0;entryY=0.5;entryDx=0;entryDy=0;" edge="1" parent="1" source="kx3W0ZN1TxM2vZaIyWMh-76" target="kx3W0ZN1TxM2vZaIyWMh-49">
          <mxGeometry width="50" height="50" relative="1" as="geometry">
            <mxPoint x="205" y="2240" as="sourcePoint" />
            <mxPoint x="390" y="1975" as="targetPoint" />
          </mxGeometry>
        </mxCell>
        <mxCell id="kx3W0ZN1TxM2vZaIyWMh-93" value="" style="endArrow=classic;html=1;rounded=0;exitX=0.5;exitY=0.5;exitDx=0;exitDy=0;exitPerimeter=0;entryX=0;entryY=0.5;entryDx=0;entryDy=0;" edge="1" parent="1" source="kx3W0ZN1TxM2vZaIyWMh-42" target="kx3W0ZN1TxM2vZaIyWMh-46">
          <mxGeometry width="50" height="50" relative="1" as="geometry">
            <mxPoint x="205" y="2240" as="sourcePoint" />
            <mxPoint x="400" y="2035" as="targetPoint" />
          </mxGeometry>
        </mxCell>
        <mxCell id="kx3W0ZN1TxM2vZaIyWMh-94" value="" style="endArrow=classic;html=1;rounded=0;exitX=0.5;exitY=0.5;exitDx=0;exitDy=0;exitPerimeter=0;entryX=0;entryY=0.5;entryDx=0;entryDy=0;" edge="1" parent="1" source="kx3W0ZN1TxM2vZaIyWMh-76" target="kx3W0ZN1TxM2vZaIyWMh-54">
          <mxGeometry width="50" height="50" relative="1" as="geometry">
            <mxPoint x="205" y="2240" as="sourcePoint" />
            <mxPoint x="400" y="2035" as="targetPoint" />
          </mxGeometry>
        </mxCell>
        <mxCell id="kx3W0ZN1TxM2vZaIyWMh-95" value="" style="endArrow=classic;html=1;rounded=0;exitX=0.5;exitY=0.5;exitDx=0;exitDy=0;exitPerimeter=0;entryX=0;entryY=0.5;entryDx=0;entryDy=0;" edge="1" parent="1" source="kx3W0ZN1TxM2vZaIyWMh-76" target="kx3W0ZN1TxM2vZaIyWMh-53">
          <mxGeometry width="50" height="50" relative="1" as="geometry">
            <mxPoint x="205" y="2240" as="sourcePoint" />
            <mxPoint x="400" y="2205" as="targetPoint" />
          </mxGeometry>
        </mxCell>
        <mxCell id="kx3W0ZN1TxM2vZaIyWMh-96" value="" style="endArrow=classic;html=1;rounded=0;exitX=0.5;exitY=0.5;exitDx=0;exitDy=0;exitPerimeter=0;entryX=0;entryY=0.5;entryDx=0;entryDy=0;" edge="1" parent="1" source="kx3W0ZN1TxM2vZaIyWMh-42" target="kx3W0ZN1TxM2vZaIyWMh-52">
          <mxGeometry width="50" height="50" relative="1" as="geometry">
            <mxPoint x="125" y="1960" as="sourcePoint" />
            <mxPoint x="400" y="2125" as="targetPoint" />
          </mxGeometry>
        </mxCell>
        <mxCell id="kx3W0ZN1TxM2vZaIyWMh-97" value="" style="endArrow=classic;html=1;rounded=0;exitX=0.5;exitY=0.5;exitDx=0;exitDy=0;exitPerimeter=0;entryX=0;entryY=0.5;entryDx=0;entryDy=0;" edge="1" parent="1" source="kx3W0ZN1TxM2vZaIyWMh-42" target="kx3W0ZN1TxM2vZaIyWMh-56">
          <mxGeometry width="50" height="50" relative="1" as="geometry">
            <mxPoint x="130" y="2360" as="sourcePoint" />
            <mxPoint x="335" y="2405" as="targetPoint" />
          </mxGeometry>
        </mxCell>
        <mxCell id="kx3W0ZN1TxM2vZaIyWMh-98" value="" style="endArrow=classic;html=1;rounded=0;exitX=0.5;exitY=0.5;exitDx=0;exitDy=0;exitPerimeter=0;entryX=0;entryY=0.5;entryDx=0;entryDy=0;" edge="1" parent="1" source="kx3W0ZN1TxM2vZaIyWMh-76" target="kx3W0ZN1TxM2vZaIyWMh-45">
          <mxGeometry width="50" height="50" relative="1" as="geometry">
            <mxPoint x="180" y="2300" as="sourcePoint" />
            <mxPoint x="385" y="2345" as="targetPoint" />
          </mxGeometry>
        </mxCell>
        <mxCell id="kx3W0ZN1TxM2vZaIyWMh-99" value="" style="endArrow=classic;html=1;rounded=0;exitX=0.5;exitY=0.5;exitDx=0;exitDy=0;exitPerimeter=0;entryX=0;entryY=0.5;entryDx=0;entryDy=0;" edge="1" parent="1" source="kx3W0ZN1TxM2vZaIyWMh-42" target="kx3W0ZN1TxM2vZaIyWMh-57">
          <mxGeometry width="50" height="50" relative="1" as="geometry">
            <mxPoint x="125" y="1960" as="sourcePoint" />
            <mxPoint x="410" y="2555" as="targetPoint" />
          </mxGeometry>
        </mxCell>
        <mxCell id="kx3W0ZN1TxM2vZaIyWMh-100" value="" style="endArrow=classic;html=1;rounded=0;exitX=0.5;exitY=0.5;exitDx=0;exitDy=0;exitPerimeter=0;entryX=0;entryY=0.5;entryDx=0;entryDy=0;" edge="1" parent="1" source="kx3W0ZN1TxM2vZaIyWMh-42" target="kx3W0ZN1TxM2vZaIyWMh-58">
          <mxGeometry width="50" height="50" relative="1" as="geometry">
            <mxPoint x="125" y="1960" as="sourcePoint" />
            <mxPoint x="400" y="2125" as="targetPoint" />
          </mxGeometry>
        </mxCell>
        <mxCell id="kx3W0ZN1TxM2vZaIyWMh-101" value="" style="endArrow=classic;html=1;rounded=0;exitX=0.5;exitY=0.5;exitDx=0;exitDy=0;exitPerimeter=0;entryX=0;entryY=0.5;entryDx=0;entryDy=0;" edge="1" parent="1" source="kx3W0ZN1TxM2vZaIyWMh-42" target="kx3W0ZN1TxM2vZaIyWMh-59">
          <mxGeometry width="50" height="50" relative="1" as="geometry">
            <mxPoint x="125" y="1960" as="sourcePoint" />
            <mxPoint x="650" y="1635" as="targetPoint" />
          </mxGeometry>
        </mxCell>
        <mxCell id="kx3W0ZN1TxM2vZaIyWMh-102" value="" style="endArrow=classic;html=1;rounded=0;exitX=0.5;exitY=0.5;exitDx=0;exitDy=0;exitPerimeter=0;entryX=0;entryY=0.5;entryDx=0;entryDy=0;" edge="1" parent="1" source="kx3W0ZN1TxM2vZaIyWMh-42" target="kx3W0ZN1TxM2vZaIyWMh-60">
          <mxGeometry width="50" height="50" relative="1" as="geometry">
            <mxPoint x="125" y="1960" as="sourcePoint" />
            <mxPoint x="650" y="1725" as="targetPoint" />
          </mxGeometry>
        </mxCell>
        <mxCell id="kx3W0ZN1TxM2vZaIyWMh-103" value="" style="endArrow=classic;html=1;rounded=0;exitX=0.5;exitY=0.5;exitDx=0;exitDy=0;exitPerimeter=0;entryX=0;entryY=0.5;entryDx=0;entryDy=0;" edge="1" parent="1" source="kx3W0ZN1TxM2vZaIyWMh-42" target="kx3W0ZN1TxM2vZaIyWMh-61">
          <mxGeometry width="50" height="50" relative="1" as="geometry">
            <mxPoint x="125" y="1960" as="sourcePoint" />
            <mxPoint x="650" y="1805" as="targetPoint" />
          </mxGeometry>
        </mxCell>
        <mxCell id="kx3W0ZN1TxM2vZaIyWMh-104" value="" style="endArrow=classic;html=1;rounded=0;exitX=0.5;exitY=0.5;exitDx=0;exitDy=0;exitPerimeter=0;entryX=0;entryY=0.5;entryDx=0;entryDy=0;" edge="1" parent="1" source="kx3W0ZN1TxM2vZaIyWMh-42" target="kx3W0ZN1TxM2vZaIyWMh-62">
          <mxGeometry width="50" height="50" relative="1" as="geometry">
            <mxPoint x="125" y="1960" as="sourcePoint" />
            <mxPoint x="650" y="1895" as="targetPoint" />
          </mxGeometry>
        </mxCell>
        <mxCell id="kx3W0ZN1TxM2vZaIyWMh-105" value="" style="endArrow=classic;html=1;rounded=0;exitX=0.5;exitY=0.5;exitDx=0;exitDy=0;exitPerimeter=0;entryX=1;entryY=0.5;entryDx=0;entryDy=0;" edge="1" parent="1" source="kx3W0ZN1TxM2vZaIyWMh-75" target="kx3W0ZN1TxM2vZaIyWMh-63">
          <mxGeometry width="50" height="50" relative="1" as="geometry">
            <mxPoint x="1240" y="2080" as="sourcePoint" />
            <mxPoint x="1515" y="2245" as="targetPoint" />
          </mxGeometry>
        </mxCell>
        <mxCell id="kx3W0ZN1TxM2vZaIyWMh-107" value="" style="endArrow=classic;html=1;rounded=0;exitX=0.5;exitY=0.5;exitDx=0;exitDy=0;exitPerimeter=0;entryX=1;entryY=0.5;entryDx=0;entryDy=0;" edge="1" parent="1" source="kx3W0ZN1TxM2vZaIyWMh-75" target="kx3W0ZN1TxM2vZaIyWMh-72">
          <mxGeometry width="50" height="50" relative="1" as="geometry">
            <mxPoint x="1235" y="1757.5" as="sourcePoint" />
            <mxPoint x="1070" y="1832.5" as="targetPoint" />
          </mxGeometry>
        </mxCell>
        <mxCell id="kx3W0ZN1TxM2vZaIyWMh-108" value="" style="endArrow=classic;html=1;rounded=0;entryX=1;entryY=0.5;entryDx=0;entryDy=0;exitX=0.5;exitY=0.5;exitDx=0;exitDy=0;exitPerimeter=0;" edge="1" parent="1" source="kx3W0ZN1TxM2vZaIyWMh-75" target="kx3W0ZN1TxM2vZaIyWMh-64">
          <mxGeometry width="50" height="50" relative="1" as="geometry">
            <mxPoint x="1290" y="2010" as="sourcePoint" />
            <mxPoint x="1120" y="2005" as="targetPoint" />
          </mxGeometry>
        </mxCell>
        <mxCell id="kx3W0ZN1TxM2vZaIyWMh-109" value="" style="endArrow=classic;html=1;rounded=0;exitX=0.5;exitY=0.5;exitDx=0;exitDy=0;exitPerimeter=0;entryX=0;entryY=0.5;entryDx=0;entryDy=0;" edge="1" parent="1" source="kx3W0ZN1TxM2vZaIyWMh-42" target="kx3W0ZN1TxM2vZaIyWMh-65">
          <mxGeometry width="50" height="50" relative="1" as="geometry">
            <mxPoint x="125" y="1960" as="sourcePoint" />
            <mxPoint x="650" y="1975" as="targetPoint" />
          </mxGeometry>
        </mxCell>
        <mxCell id="kx3W0ZN1TxM2vZaIyWMh-110" value="" style="endArrow=classic;html=1;rounded=0;exitX=0.5;exitY=0.5;exitDx=0;exitDy=0;exitPerimeter=0;entryX=0;entryY=0.5;entryDx=0;entryDy=0;" edge="1" parent="1" source="kx3W0ZN1TxM2vZaIyWMh-42" target="kx3W0ZN1TxM2vZaIyWMh-66">
          <mxGeometry width="50" height="50" relative="1" as="geometry">
            <mxPoint x="125" y="1960" as="sourcePoint" />
            <mxPoint x="650" y="2205" as="targetPoint" />
          </mxGeometry>
        </mxCell>
        <mxCell id="kx3W0ZN1TxM2vZaIyWMh-111" value="" style="endArrow=classic;html=1;rounded=0;entryX=0;entryY=0.5;entryDx=0;entryDy=0;exitX=0.5;exitY=0.5;exitDx=0;exitDy=0;exitPerimeter=0;" edge="1" parent="1" source="kx3W0ZN1TxM2vZaIyWMh-42" target="kx3W0ZN1TxM2vZaIyWMh-68">
          <mxGeometry width="50" height="50" relative="1" as="geometry">
            <mxPoint x="107.14285714285714" y="1950" as="sourcePoint" />
            <mxPoint x="650" y="2275" as="targetPoint" />
          </mxGeometry>
        </mxCell>
        <mxCell id="kx3W0ZN1TxM2vZaIyWMh-112" value="" style="endArrow=classic;html=1;rounded=0;entryX=0;entryY=0.5;entryDx=0;entryDy=0;exitX=0.5;exitY=0.5;exitDx=0;exitDy=0;exitPerimeter=0;" edge="1" parent="1" source="kx3W0ZN1TxM2vZaIyWMh-76" target="kx3W0ZN1TxM2vZaIyWMh-69">
          <mxGeometry width="50" height="50" relative="1" as="geometry">
            <mxPoint x="190" y="2230" as="sourcePoint" />
            <mxPoint x="410" y="2425" as="targetPoint" />
          </mxGeometry>
        </mxCell>
        <mxCell id="kx3W0ZN1TxM2vZaIyWMh-113" value="" style="endArrow=classic;html=1;rounded=0;entryX=1;entryY=0.5;entryDx=0;entryDy=0;exitX=0.5;exitY=0.5;exitDx=0;exitDy=0;exitPerimeter=0;" edge="1" parent="1" source="kx3W0ZN1TxM2vZaIyWMh-75" target="kx3W0ZN1TxM2vZaIyWMh-67">
          <mxGeometry width="50" height="50" relative="1" as="geometry">
            <mxPoint x="1285" y="1930" as="sourcePoint" />
            <mxPoint x="1110" y="2175" as="targetPoint" />
          </mxGeometry>
        </mxCell>
        <mxCell id="kx3W0ZN1TxM2vZaIyWMh-114" value="" style="endArrow=classic;html=1;rounded=0;entryX=1;entryY=0.5;entryDx=0;entryDy=0;exitX=0.5;exitY=0.5;exitDx=0;exitDy=0;exitPerimeter=0;" edge="1" parent="1" source="kx3W0ZN1TxM2vZaIyWMh-75" target="kx3W0ZN1TxM2vZaIyWMh-70">
          <mxGeometry width="50" height="50" relative="1" as="geometry">
            <mxPoint x="1295" y="1940" as="sourcePoint" />
            <mxPoint x="1120" y="2185" as="targetPoint" />
          </mxGeometry>
        </mxCell>
        <mxCell id="kx3W0ZN1TxM2vZaIyWMh-115" value="" style="endArrow=classic;html=1;rounded=0;entryX=1;entryY=0.5;entryDx=0;entryDy=0;exitX=0.5;exitY=0.5;exitDx=0;exitDy=0;exitPerimeter=0;" edge="1" parent="1" source="kx3W0ZN1TxM2vZaIyWMh-75" target="kx3W0ZN1TxM2vZaIyWMh-71">
          <mxGeometry width="50" height="50" relative="1" as="geometry">
            <mxPoint x="1285" y="1930" as="sourcePoint" />
            <mxPoint x="1120" y="2475" as="targetPoint" />
          </mxGeometry>
        </mxCell>
        <mxCell id="kx3W0ZN1TxM2vZaIyWMh-116" value="" style="endArrow=classic;html=1;rounded=0;exitX=0.5;exitY=0.5;exitDx=0;exitDy=0;exitPerimeter=0;entryX=0;entryY=0.5;entryDx=0;entryDy=0;" edge="1" parent="1" source="kx3W0ZN1TxM2vZaIyWMh-77" target="kx3W0ZN1TxM2vZaIyWMh-57">
          <mxGeometry width="50" height="50" relative="1" as="geometry">
            <mxPoint x="205" y="2240" as="sourcePoint" />
            <mxPoint x="410" y="2425" as="targetPoint" />
          </mxGeometry>
        </mxCell>
        <mxCell id="kx3W0ZN1TxM2vZaIyWMh-117" value="" style="endArrow=classic;html=1;rounded=0;exitX=0.5;exitY=0.5;exitDx=0;exitDy=0;exitPerimeter=0;entryX=0;entryY=0.5;entryDx=0;entryDy=0;" edge="1" parent="1" source="kx3W0ZN1TxM2vZaIyWMh-77" target="kx3W0ZN1TxM2vZaIyWMh-46">
          <mxGeometry width="50" height="50" relative="1" as="geometry">
            <mxPoint x="205" y="2470" as="sourcePoint" />
            <mxPoint x="410" y="2625" as="targetPoint" />
          </mxGeometry>
        </mxCell>
        <mxCell id="kx3W0ZN1TxM2vZaIyWMh-118" value="" style="endArrow=classic;html=1;rounded=0;exitX=0.5;exitY=0.5;exitDx=0;exitDy=0;exitPerimeter=0;entryX=0;entryY=0.5;entryDx=0;entryDy=0;" edge="1" parent="1" source="kx3W0ZN1TxM2vZaIyWMh-42" target="kx3W0ZN1TxM2vZaIyWMh-50">
          <mxGeometry width="50" height="50" relative="1" as="geometry">
            <mxPoint x="125" y="1960" as="sourcePoint" />
            <mxPoint x="650" y="1975" as="targetPoint" />
          </mxGeometry>
        </mxCell>
        <mxCell id="kx3W0ZN1TxM2vZaIyWMh-133" value="" style="endArrow=classic;html=1;rounded=0;entryX=0;entryY=0.5;entryDx=0;entryDy=0;exitX=0.5;exitY=0.5;exitDx=0;exitDy=0;exitPerimeter=0;" edge="1" parent="1" source="kx3W0ZN1TxM2vZaIyWMh-42" target="kx3W0ZN1TxM2vZaIyWMh-63">
          <mxGeometry width="50" height="50" relative="1" as="geometry">
            <mxPoint x="120" y="1950" as="sourcePoint" />
            <mxPoint x="650" y="1975" as="targetPoint" />
          </mxGeometry>
        </mxCell>
      </root>
    </mxGraphModel>
  </diagram>
</mxfile>
